<svg width="32" height="33" viewBox="0 0 32 33" fill="none" xmlns="http://www.w3.org/2000/svg">
<path d="M25.9999 21.4201V24.4201C26.0011 24.6986 25.944 24.9743 25.8324 25.2294C25.7209 25.4846 25.5572 25.7137 25.352 25.902C25.1468 26.0902 24.9045 26.2336 24.6407 26.3228C24.3769 26.412 24.0973 26.4452 23.8199 26.4201C20.7428 26.0857 17.7869 25.0342 15.1899 23.3501C12.7738 21.8148 10.7253 19.7663 9.18993 17.3501C7.49991 14.7413 6.44818 11.7711 6.11993 8.6801C6.09494 8.40356 6.12781 8.12486 6.21643 7.86172C6.30506 7.59859 6.4475 7.35679 6.6347 7.15172C6.82189 6.94665 7.04974 6.78281 7.30372 6.67062C7.55771 6.55843 7.83227 6.50036 8.10993 6.5001H11.1099C11.5952 6.49532 12.0657 6.66718 12.4337 6.98363C12.8017 7.30008 13.042 7.73954 13.1099 8.2201C13.2366 9.18016 13.4714 10.1228 13.8099 11.0301C13.9445 11.388 13.9736 11.777 13.8938 12.151C13.8141 12.5249 13.6288 12.8682 13.3599 13.1401L12.0899 14.4101C13.5135 16.9136 15.5864 18.9865 18.0899 20.4101L19.3599 19.1401C19.6318 18.8712 19.9751 18.6859 20.3491 18.6062C20.723 18.5264 21.112 18.5556 21.4699 18.6901C22.3772 19.0286 23.3199 19.2635 24.2799 19.3901C24.7657 19.4586 25.2093 19.7033 25.5265 20.0776C25.8436 20.4519 26.0121 20.9297 25.9999 21.4201Z" stroke="#C9F0FF" stroke-width="1.5" stroke-linecap="round" stroke-linejoin="round"/>
</svg>
