<?xml version="1.0" encoding="UTF-8"?>
<svg id="Layer_2" data-name="Layer 2" xmlns="http://www.w3.org/2000/svg" xmlns:xlink="http://www.w3.org/1999/xlink" viewBox="0 0 1405.47 251.59">
  <defs>
    <style>
      .cls-1 {
        fill: url(#_Безымянный_градиент_5);
      }

      .cls-2 {
        fill: url(#_Безымянный_градиент_5-2);
      }

      .cls-3 {
        fill: #fff;
      }

      .cls-4 {
        fill: url(#_Безымянный_градиент_13);
      }
    </style>
    <linearGradient id="_Безымянный_градиент_5" data-name="Безымянный градиент 5" x1="1099.89" y1="131.06" x2="1405.47" y2="131.06" gradientUnits="userSpaceOnUse">
      <stop offset="0" stop-color="#0953f8"/>
      <stop offset="1" stop-color="#4be0ff"/>
    </linearGradient>
    <linearGradient id="_Безымянный_градиент_13" data-name="Безымянный градиент 13" x1="1370.32" y1="192.81" x2="1370.32" y2="76.81" gradientUnits="userSpaceOnUse">
      <stop offset="0" stop-color="#3fc6fe" stop-opacity="0"/>
      <stop offset=".87" stop-color="#42ccfe"/>
    </linearGradient>
    <linearGradient id="_Безымянный_градиент_5-2" data-name="Безымянный градиент 5" x1="1217.71" y1="134.63" x2="1343.4" y2="134.63" xlink:href="#_Безымянный_градиент_5"/>
  </defs>
  <g id="_Слой_1" data-name="Слой 1">
    <g>
      <g>
        <g>
          <path class="cls-3" d="M87.76,14.19h45.49l87.76,222.63h-42.27l-18.07-47.43H59.37l-18.07,47.43H0L87.76,14.19ZM147.12,153.9l-37.1-97.76-37.11,97.76h74.21Z"/>
          <path class="cls-3" d="M227.85,177.13v-104.86h36.14v94.21c0,23.55,15.16,39.36,38.39,39.36,24.52,0,40.97-16.13,40.97-40.01v-93.57h36.14v164.55h-36.14v-20.33c-12.58,15.81-30.65,24.2-52.59,24.2-37.75,0-62.92-25.17-62.92-63.56Z"/>
          <path class="cls-3" d="M401.58,154.54c0-49.04,34.52-86.14,80.98-86.14,24.2,0,44.2,10.33,57.75,27.42V14.19h36.13v222.63h-36.13v-23.55c-13.55,17.1-33.56,27.42-57.75,27.42-46.46,0-80.98-37.1-80.98-86.15ZM540.31,154.54c0-29.04-21.62-51.3-50.65-51.3s-50.98,22.26-50.98,51.3,21.62,51.3,50.98,51.3,50.65-22.26,50.65-51.3Z"/>
          <path class="cls-3" d="M602.19,22.9c0-13.23,10-22.9,22.91-22.9s23.23,9.68,23.23,22.9-10,22.91-23.23,22.91-22.91-10-22.91-22.91ZM607.03,72.27h36.14v164.55h-36.14V72.27Z"/>
          <path class="cls-3" d="M693.49,186.16v-80.98h-27.75v-32.91h16.78c8.39,0,12.9-4.51,12.9-12.91v-31.62h34.2v44.53h40.65v32.91h-40.65v75.17c0,14.52,9.03,23.23,24.2,23.23h16.46v33.23h-21.62c-35.81,0-55.17-18.07-55.17-50.66Z"/>
          <path class="cls-3" d="M783.15,154.54c0-49.04,37.75-86.14,88.08-86.14s88.08,37.1,88.08,86.14-38.07,86.15-88.08,86.15-88.08-37.1-88.08-86.15ZM921.88,154.54c0-29.04-21.62-51.3-50.65-51.3s-50.98,22.26-50.98,51.3,21.94,51.3,50.98,51.3,50.65-22.26,50.65-51.3Z"/>
          <path class="cls-3" d="M979.89,72.27h36.13v27.42c12.91-18.71,31.94-30,55.17-30h5.81v37.1h-5.81c-34.85,0-55.17,19.68-55.17,50.01v80.02h-36.13V72.27Z"/>
        </g>
        <path class="cls-1" d="M1099.89,14.2v222.6h38.4V14.2h-38.4ZM1346.25,166.46c-6.48,10.53-15.37,19.37-25.9,25.85-11.99,7.44-26.15,11.67-41.34,11.6-40.77-.2-75.27-32.66-77.82-73.35-2.86-45.52,33.37-83.42,78.23-83.42,29.84,0,55.86,16.72,69.09,41.39.79,1.46,1.52,2.98,2.25,4.56.11.23.17.39.28.62l34.52-12.33c-.62-1.52-1.3-3.04-2.03-4.56-20.38-43.45-67.13-72.11-119.53-65.27-51.83,6.77-93.01,48.81-98.84,100.75-7.78,69.3,46.48,128.22,114.24,128.22,25.11,0,48.37-8.11,67.29-21.79l31.03,31.03c2.46,2.46,6.44,2.46,8.9,0l17.01-17.01c2.46-2.46,2.46-6.44,0-8.9l-57.38-57.38Z"/>
        <path class="cls-4" d="M1394.39,125.52c0,25.11-8.11,48.37-21.79,67.29l-26.35-26.35c7.32-11.88,11.54-25.9,11.54-40.94,0-11.6-2.53-22.58-7.04-32.44-.73-1.58-1.46-3.1-2.25-4.56l35.03-11.71c.73,1.52,1.41,3.04,2.03,4.56,5.69,13.57,8.84,28.49,8.84,44.15Z"/>
      </g>
      <path class="cls-2" d="M1342.57,105.87l-79.17,79.17c-1.11,1.11-2.91,1.11-4.02,0l-40.84-40.84c-1.11-1.11-1.11-2.91,0-4.02l17.66-17.66c1.11-1.11,2.91-1.11,4.02,0l19.16,19.16c1.11,1.11,2.91,1.11,4.02,0l57.49-57.48c1.11-1.11,2.91-1.11,4.01,0l17.66,17.65c1.11,1.11,1.11,2.91,0,4.02Z"/>
    </g>
  </g>
</svg>